<mxfile host="app.diagrams.net" modified="2023-06-14T11:29:54.894Z" agent="Mozilla/5.0 (Macintosh; Intel Mac OS X 10_15_7) AppleWebKit/537.36 (KHTML, like Gecko) Chrome/114.0.0.0 Safari/537.36" etag="NjiHguzPelIxYp7b36U1" version="21.3.8" type="github">
  <diagram id="C5RBs43oDa-KdzZeNtuy" name="Page-1">
    <mxGraphModel dx="2261" dy="773" grid="1" gridSize="10" guides="1" tooltips="1" connect="1" arrows="1" fold="1" page="1" pageScale="1" pageWidth="827" pageHeight="1169" math="0" shadow="0">
      <root>
        <mxCell id="WIyWlLk6GJQsqaUBKTNV-0" />
        <mxCell id="WIyWlLk6GJQsqaUBKTNV-1" parent="WIyWlLk6GJQsqaUBKTNV-0" />
        <mxCell id="2m2cGnubEGgLQn0LFh3w-37" value="IBI-Ark-Biz" style="swimlane;whiteSpace=wrap;html=1;" vertex="1" parent="WIyWlLk6GJQsqaUBKTNV-1">
          <mxGeometry x="-750" y="639" width="290" height="220" as="geometry" />
        </mxCell>
        <mxCell id="2m2cGnubEGgLQn0LFh3w-38" value="ibi-front.zip" style="rounded=0;whiteSpace=wrap;html=1;" vertex="1" parent="2m2cGnubEGgLQn0LFh3w-37">
          <mxGeometry x="15" y="160" width="110" height="40" as="geometry" />
        </mxCell>
        <mxCell id="2m2cGnubEGgLQn0LFh3w-44" value="" style="sketch=0;points=[[0,0,0],[0.25,0,0],[0.5,0,0],[0.75,0,0],[1,0,0],[1,0.25,0],[1,0.5,0],[1,0.75,0],[1,1,0],[0.75,1,0],[0.5,1,0],[0.25,1,0],[0,1,0],[0,0.75,0],[0,0.5,0],[0,0.25,0]];rounded=1;absoluteArcSize=1;arcSize=2;html=1;strokeColor=none;gradientColor=none;shadow=0;dashed=0;fontSize=12;fontColor=#9E9E9E;align=left;verticalAlign=top;spacing=10;spacingTop=-4;whiteSpace=wrap;fillColor=#EFEBE9;" vertex="1" parent="2m2cGnubEGgLQn0LFh3w-37">
          <mxGeometry x="154" y="23" width="136" height="197" as="geometry" />
        </mxCell>
        <mxCell id="2m2cGnubEGgLQn0LFh3w-49" style="edgeStyle=orthogonalEdgeStyle;rounded=0;orthogonalLoop=1;jettySize=auto;html=1;exitX=1;exitY=0.5;exitDx=0;exitDy=0;entryX=0;entryY=0.5;entryDx=0;entryDy=0;dashed=1;" edge="1" parent="2m2cGnubEGgLQn0LFh3w-37" source="2m2cGnubEGgLQn0LFh3w-42" target="2m2cGnubEGgLQn0LFh3w-46">
          <mxGeometry relative="1" as="geometry" />
        </mxCell>
        <mxCell id="2m2cGnubEGgLQn0LFh3w-50" style="rounded=0;orthogonalLoop=1;jettySize=auto;html=1;exitX=1;exitY=0.5;exitDx=0;exitDy=0;entryX=0;entryY=0.5;entryDx=0;entryDy=0;dashed=1;" edge="1" parent="2m2cGnubEGgLQn0LFh3w-37" source="2m2cGnubEGgLQn0LFh3w-42" target="2m2cGnubEGgLQn0LFh3w-47">
          <mxGeometry relative="1" as="geometry" />
        </mxCell>
        <mxCell id="2m2cGnubEGgLQn0LFh3w-51" style="rounded=0;orthogonalLoop=1;jettySize=auto;html=1;exitX=1;exitY=0.5;exitDx=0;exitDy=0;entryX=0;entryY=0.5;entryDx=0;entryDy=0;dashed=1;" edge="1" parent="2m2cGnubEGgLQn0LFh3w-37" source="2m2cGnubEGgLQn0LFh3w-42" target="2m2cGnubEGgLQn0LFh3w-48">
          <mxGeometry relative="1" as="geometry" />
        </mxCell>
        <mxCell id="2m2cGnubEGgLQn0LFh3w-42" value="IBI-Biz&lt;br&gt;(sofa-ark)" style="rounded=0;whiteSpace=wrap;html=1;" vertex="1" parent="2m2cGnubEGgLQn0LFh3w-37">
          <mxGeometry x="15" y="40" width="110" height="40" as="geometry" />
        </mxCell>
        <mxCell id="2m2cGnubEGgLQn0LFh3w-46" value="Biz-Plugin&lt;br&gt;(base-provider)" style="rounded=0;whiteSpace=wrap;html=1;" vertex="1" parent="2m2cGnubEGgLQn0LFh3w-37">
          <mxGeometry x="167" y="40" width="110" height="40" as="geometry" />
        </mxCell>
        <mxCell id="2m2cGnubEGgLQn0LFh3w-47" value="Biz-Plugin&lt;br&gt;(fila-provider)" style="rounded=0;whiteSpace=wrap;html=1;" vertex="1" parent="2m2cGnubEGgLQn0LFh3w-37">
          <mxGeometry x="167" y="101.5" width="110" height="40" as="geometry" />
        </mxCell>
        <mxCell id="2m2cGnubEGgLQn0LFh3w-48" value="Biz-Plugin&lt;br&gt;(pvh-provider)" style="rounded=0;whiteSpace=wrap;html=1;" vertex="1" parent="2m2cGnubEGgLQn0LFh3w-37">
          <mxGeometry x="167" y="160" width="110" height="40" as="geometry" />
        </mxCell>
        <mxCell id="2m2cGnubEGgLQn0LFh3w-63" value="LEAP" style="swimlane;whiteSpace=wrap;html=1;" vertex="1" parent="WIyWlLk6GJQsqaUBKTNV-1">
          <mxGeometry x="-750" y="240" width="610" height="360" as="geometry" />
        </mxCell>
        <mxCell id="2m2cGnubEGgLQn0LFh3w-64" value="Leap-Frontend-Base" style="sketch=0;points=[[0,0,0],[0.25,0,0],[0.5,0,0],[0.75,0,0],[1,0,0],[1,0.25,0],[1,0.5,0],[1,0.75,0],[1,1,0],[0.75,1,0],[0.5,1,0],[0.25,1,0],[0,1,0],[0,0.75,0],[0,0.5,0],[0,0.25,0]];rounded=1;absoluteArcSize=1;arcSize=2;html=1;strokeColor=none;gradientColor=none;shadow=0;dashed=0;fontSize=12;fontColor=#4D4D4D;align=left;verticalAlign=top;spacing=10;spacingTop=-4;whiteSpace=wrap;fillColor=#F1F8E9;" vertex="1" parent="2m2cGnubEGgLQn0LFh3w-63">
          <mxGeometry y="200" width="610" height="160" as="geometry" />
        </mxCell>
        <mxCell id="2m2cGnubEGgLQn0LFh3w-71" value="/ibi/index&lt;br&gt;（Dynamic）" style="rounded=0;whiteSpace=wrap;html=1;dashed=1;" vertex="1" parent="2m2cGnubEGgLQn0LFh3w-63">
          <mxGeometry x="290" y="314" width="110" height="40" as="geometry" />
        </mxCell>
        <mxCell id="2m2cGnubEGgLQn0LFh3w-83" value="Biz-Admin" style="rounded=0;whiteSpace=wrap;html=1;" vertex="1" parent="2m2cGnubEGgLQn0LFh3w-63">
          <mxGeometry x="160" y="250" width="120" height="45" as="geometry" />
        </mxCell>
        <mxCell id="2m2cGnubEGgLQn0LFh3w-181" value="/xxl/index&lt;br&gt;（Dynamic）" style="rounded=0;whiteSpace=wrap;html=1;dashed=1;" vertex="1" parent="2m2cGnubEGgLQn0LFh3w-63">
          <mxGeometry x="420" y="314" width="110" height="40" as="geometry" />
        </mxCell>
        <mxCell id="2m2cGnubEGgLQn0LFh3w-182" value="/ucenter/index&lt;br&gt;（Dynamic）" style="rounded=0;whiteSpace=wrap;html=1;dashed=1;" vertex="1" parent="2m2cGnubEGgLQn0LFh3w-63">
          <mxGeometry x="160" y="314" width="110" height="40" as="geometry" />
        </mxCell>
        <mxCell id="2m2cGnubEGgLQn0LFh3w-183" value="Leap-Portal" style="rounded=0;whiteSpace=wrap;html=1;" vertex="1" parent="2m2cGnubEGgLQn0LFh3w-63">
          <mxGeometry x="10" y="250" width="120" height="45" as="geometry" />
        </mxCell>
        <mxCell id="2m2cGnubEGgLQn0LFh3w-185" value="Ops-Admin" style="rounded=0;whiteSpace=wrap;html=1;" vertex="1" parent="2m2cGnubEGgLQn0LFh3w-63">
          <mxGeometry x="310" y="250" width="120" height="45" as="geometry" />
        </mxCell>
        <mxCell id="2m2cGnubEGgLQn0LFh3w-186" value="LEAP-Backend" style="sketch=0;points=[[0,0,0],[0.25,0,0],[0.5,0,0],[0.75,0,0],[1,0,0],[1,0.25,0],[1,0.5,0],[1,0.75,0],[1,1,0],[0.75,1,0],[0.5,1,0],[0.25,1,0],[0,1,0],[0,0.75,0],[0,0.5,0],[0,0.25,0]];rounded=1;absoluteArcSize=1;arcSize=2;html=1;strokeColor=none;gradientColor=none;shadow=0;dashed=0;fontSize=12;fontColor=#6B6B6B;align=left;verticalAlign=top;spacing=10;spacingTop=-4;whiteSpace=wrap;fillColor=#EFEBE9;" vertex="1" parent="2m2cGnubEGgLQn0LFh3w-63">
          <mxGeometry y="20" width="610" height="180" as="geometry" />
        </mxCell>
        <mxCell id="2m2cGnubEGgLQn0LFh3w-187" value="SOFA-Ark" style="rounded=0;whiteSpace=wrap;html=1;" vertex="1" parent="2m2cGnubEGgLQn0LFh3w-63">
          <mxGeometry x="464" y="140" width="120" height="45" as="geometry" />
        </mxCell>
        <mxCell id="2m2cGnubEGgLQn0LFh3w-188" value="SOFA-Dashboard" style="rounded=0;whiteSpace=wrap;html=1;" vertex="1" parent="2m2cGnubEGgLQn0LFh3w-63">
          <mxGeometry x="310" y="140" width="120" height="45" as="geometry" />
        </mxCell>
        <mxCell id="2m2cGnubEGgLQn0LFh3w-189" value="LEAP-Metrics" style="rounded=0;whiteSpace=wrap;html=1;" vertex="1" parent="2m2cGnubEGgLQn0LFh3w-63">
          <mxGeometry x="310" y="60" width="120" height="45" as="geometry" />
        </mxCell>
        <mxCell id="2m2cGnubEGgLQn0LFh3w-190" value="LEAP-Monitor" style="rounded=0;whiteSpace=wrap;html=1;" vertex="1" parent="2m2cGnubEGgLQn0LFh3w-63">
          <mxGeometry x="160" y="60" width="120" height="45" as="geometry" />
        </mxCell>
        <mxCell id="2m2cGnubEGgLQn0LFh3w-191" value="LEAP-Meta" style="rounded=0;whiteSpace=wrap;html=1;" vertex="1" parent="2m2cGnubEGgLQn0LFh3w-63">
          <mxGeometry x="10" y="60" width="120" height="45" as="geometry" />
        </mxCell>
        <mxCell id="2m2cGnubEGgLQn0LFh3w-192" value="LEAP-SDK" style="rounded=0;whiteSpace=wrap;html=1;" vertex="1" parent="2m2cGnubEGgLQn0LFh3w-63">
          <mxGeometry x="464" y="60" width="120" height="45" as="geometry" />
        </mxCell>
        <mxCell id="2m2cGnubEGgLQn0LFh3w-208" value="OSS-Ark-Biz" style="swimlane;whiteSpace=wrap;html=1;" vertex="1" parent="WIyWlLk6GJQsqaUBKTNV-1">
          <mxGeometry x="-430" y="639" width="290" height="220" as="geometry" />
        </mxCell>
        <mxCell id="2m2cGnubEGgLQn0LFh3w-209" value="oss-front.zip" style="rounded=0;whiteSpace=wrap;html=1;" vertex="1" parent="2m2cGnubEGgLQn0LFh3w-208">
          <mxGeometry x="15" y="160" width="110" height="40" as="geometry" />
        </mxCell>
        <mxCell id="2m2cGnubEGgLQn0LFh3w-210" value="" style="sketch=0;points=[[0,0,0],[0.25,0,0],[0.5,0,0],[0.75,0,0],[1,0,0],[1,0.25,0],[1,0.5,0],[1,0.75,0],[1,1,0],[0.75,1,0],[0.5,1,0],[0.25,1,0],[0,1,0],[0,0.75,0],[0,0.5,0],[0,0.25,0]];rounded=1;absoluteArcSize=1;arcSize=2;html=1;strokeColor=none;gradientColor=none;shadow=0;dashed=0;fontSize=12;fontColor=#9E9E9E;align=left;verticalAlign=top;spacing=10;spacingTop=-4;whiteSpace=wrap;fillColor=#EFEBE9;" vertex="1" parent="2m2cGnubEGgLQn0LFh3w-208">
          <mxGeometry x="154" y="23" width="136" height="197" as="geometry" />
        </mxCell>
        <mxCell id="2m2cGnubEGgLQn0LFh3w-211" style="edgeStyle=orthogonalEdgeStyle;rounded=0;orthogonalLoop=1;jettySize=auto;html=1;exitX=1;exitY=0.5;exitDx=0;exitDy=0;entryX=0;entryY=0.5;entryDx=0;entryDy=0;dashed=1;" edge="1" parent="2m2cGnubEGgLQn0LFh3w-208" source="2m2cGnubEGgLQn0LFh3w-214" target="2m2cGnubEGgLQn0LFh3w-215">
          <mxGeometry relative="1" as="geometry" />
        </mxCell>
        <mxCell id="2m2cGnubEGgLQn0LFh3w-212" style="rounded=0;orthogonalLoop=1;jettySize=auto;html=1;exitX=1;exitY=0.5;exitDx=0;exitDy=0;entryX=0;entryY=0.5;entryDx=0;entryDy=0;dashed=1;" edge="1" parent="2m2cGnubEGgLQn0LFh3w-208" source="2m2cGnubEGgLQn0LFh3w-214" target="2m2cGnubEGgLQn0LFh3w-216">
          <mxGeometry relative="1" as="geometry" />
        </mxCell>
        <mxCell id="2m2cGnubEGgLQn0LFh3w-213" style="rounded=0;orthogonalLoop=1;jettySize=auto;html=1;exitX=1;exitY=0.5;exitDx=0;exitDy=0;entryX=0;entryY=0.5;entryDx=0;entryDy=0;dashed=1;" edge="1" parent="2m2cGnubEGgLQn0LFh3w-208" source="2m2cGnubEGgLQn0LFh3w-214" target="2m2cGnubEGgLQn0LFh3w-217">
          <mxGeometry relative="1" as="geometry" />
        </mxCell>
        <mxCell id="2m2cGnubEGgLQn0LFh3w-214" value="OSS-Biz&lt;br&gt;(sofa-ark)" style="rounded=0;whiteSpace=wrap;html=1;" vertex="1" parent="2m2cGnubEGgLQn0LFh3w-208">
          <mxGeometry x="15" y="40" width="110" height="40" as="geometry" />
        </mxCell>
        <mxCell id="2m2cGnubEGgLQn0LFh3w-215" value="Biz-Plugin&lt;br&gt;(S3-provider)" style="rounded=0;whiteSpace=wrap;html=1;" vertex="1" parent="2m2cGnubEGgLQn0LFh3w-208">
          <mxGeometry x="167" y="40" width="110" height="40" as="geometry" />
        </mxCell>
        <mxCell id="2m2cGnubEGgLQn0LFh3w-216" value="Biz-Plugin&lt;br&gt;(MINIO-provider)" style="rounded=0;whiteSpace=wrap;html=1;" vertex="1" parent="2m2cGnubEGgLQn0LFh3w-208">
          <mxGeometry x="167" y="101.5" width="110" height="40" as="geometry" />
        </mxCell>
        <mxCell id="2m2cGnubEGgLQn0LFh3w-217" value="Biz-Plugin&lt;br&gt;(OBS-provider)" style="rounded=0;whiteSpace=wrap;html=1;" vertex="1" parent="2m2cGnubEGgLQn0LFh3w-208">
          <mxGeometry x="167" y="160" width="110" height="40" as="geometry" />
        </mxCell>
        <mxCell id="2m2cGnubEGgLQn0LFh3w-218" value="XXL-Ark-Biz" style="swimlane;whiteSpace=wrap;html=1;" vertex="1" parent="WIyWlLk6GJQsqaUBKTNV-1">
          <mxGeometry x="-110" y="639" width="290" height="220" as="geometry" />
        </mxCell>
        <mxCell id="2m2cGnubEGgLQn0LFh3w-219" value="xxl-front.zip" style="rounded=0;whiteSpace=wrap;html=1;" vertex="1" parent="2m2cGnubEGgLQn0LFh3w-218">
          <mxGeometry x="170" y="160" width="110" height="40" as="geometry" />
        </mxCell>
        <mxCell id="2m2cGnubEGgLQn0LFh3w-229" style="edgeStyle=orthogonalEdgeStyle;rounded=0;orthogonalLoop=1;jettySize=auto;html=1;exitX=0.5;exitY=1;exitDx=0;exitDy=0;entryX=0.5;entryY=0;entryDx=0;entryDy=0;" edge="1" parent="2m2cGnubEGgLQn0LFh3w-218" source="2m2cGnubEGgLQn0LFh3w-224" target="2m2cGnubEGgLQn0LFh3w-228">
          <mxGeometry relative="1" as="geometry" />
        </mxCell>
        <mxCell id="2m2cGnubEGgLQn0LFh3w-224" value="XXL-Biz&lt;br&gt;(sofa-ark)" style="rounded=0;whiteSpace=wrap;html=1;" vertex="1" parent="2m2cGnubEGgLQn0LFh3w-218">
          <mxGeometry x="15" y="40" width="110" height="40" as="geometry" />
        </mxCell>
        <mxCell id="2m2cGnubEGgLQn0LFh3w-228" value="XXL-Service" style="rounded=0;whiteSpace=wrap;html=1;" vertex="1" parent="2m2cGnubEGgLQn0LFh3w-218">
          <mxGeometry x="15" y="110" width="110" height="40" as="geometry" />
        </mxCell>
        <mxCell id="2m2cGnubEGgLQn0LFh3w-230" value="Redis" style="rounded=0;whiteSpace=wrap;html=1;" vertex="1" parent="WIyWlLk6GJQsqaUBKTNV-1">
          <mxGeometry x="-750" y="880" width="120" height="45" as="geometry" />
        </mxCell>
        <mxCell id="2m2cGnubEGgLQn0LFh3w-231" value="XXL-Job" style="rounded=0;whiteSpace=wrap;html=1;" vertex="1" parent="WIyWlLk6GJQsqaUBKTNV-1">
          <mxGeometry x="-588" y="880" width="120" height="45" as="geometry" />
        </mxCell>
        <mxCell id="2m2cGnubEGgLQn0LFh3w-232" value="MINIO" style="rounded=0;whiteSpace=wrap;html=1;" vertex="1" parent="WIyWlLk6GJQsqaUBKTNV-1">
          <mxGeometry x="-426" y="880" width="120" height="45" as="geometry" />
        </mxCell>
        <mxCell id="2m2cGnubEGgLQn0LFh3w-233" value="RabbitMQ" style="rounded=0;whiteSpace=wrap;html=1;" vertex="1" parent="WIyWlLk6GJQsqaUBKTNV-1">
          <mxGeometry x="-264" y="880" width="120" height="45" as="geometry" />
        </mxCell>
        <mxCell id="2m2cGnubEGgLQn0LFh3w-234" value="Promethus" style="rounded=0;whiteSpace=wrap;html=1;" vertex="1" parent="WIyWlLk6GJQsqaUBKTNV-1">
          <mxGeometry x="-102" y="880" width="120" height="45" as="geometry" />
        </mxCell>
        <mxCell id="2m2cGnubEGgLQn0LFh3w-235" value="GrayLog" style="rounded=0;whiteSpace=wrap;html=1;" vertex="1" parent="WIyWlLk6GJQsqaUBKTNV-1">
          <mxGeometry x="60" y="880" width="120" height="45" as="geometry" />
        </mxCell>
        <mxCell id="2m2cGnubEGgLQn0LFh3w-236" value="Oracle" style="rounded=0;whiteSpace=wrap;html=1;" vertex="1" parent="WIyWlLk6GJQsqaUBKTNV-1">
          <mxGeometry x="-750" y="160" width="120" height="45" as="geometry" />
        </mxCell>
        <mxCell id="2m2cGnubEGgLQn0LFh3w-237" value="Doris" style="rounded=0;whiteSpace=wrap;html=1;" vertex="1" parent="WIyWlLk6GJQsqaUBKTNV-1">
          <mxGeometry x="-580" y="160" width="120" height="45" as="geometry" />
        </mxCell>
        <mxCell id="2m2cGnubEGgLQn0LFh3w-238" value="B2B" style="swimlane;whiteSpace=wrap;html=1;" vertex="1" parent="WIyWlLk6GJQsqaUBKTNV-1">
          <mxGeometry x="-110" y="300" width="290" height="120" as="geometry" />
        </mxCell>
        <mxCell id="2m2cGnubEGgLQn0LFh3w-239" value="FAIR" style="swimlane;whiteSpace=wrap;html=1;" vertex="1" parent="WIyWlLk6GJQsqaUBKTNV-1">
          <mxGeometry x="-110" y="480" width="290" height="120" as="geometry" />
        </mxCell>
      </root>
    </mxGraphModel>
  </diagram>
</mxfile>
